<?xml version="1.0" standalone="no"?><!DOCTYPE svg PUBLIC "-//W3C//DTD SVG 1.1//EN" "http://www.w3.org/Graphics/SVG/1.1/DTD/svg11.dtd"><svg class="icon" width="200px" height="184.67px" viewBox="0 0 1109 1024" version="1.1" xmlns="http://www.w3.org/2000/svg"><path fill="#8a8a8a" d="M554.805566 1023.999794a54.658982 54.658982 0 0 1-38.903556-16.166948L101.881167 593.767911A347.839237 347.839237 0 0 1 554.805566 68.298007a347.839237 347.839237 0 0 1 452.968491 525.484602l-0.191064 0.191064L593.767911 1007.832846a54.673679 54.673679 0 0 1-38.962345 16.166948zM347.824539 64.667792a283.156747 283.156747 0 0 0-200.220303 483.377051l407.20133 407.260119L962.080383 548.088934l0.176367-0.176366A283.156747 283.156747 0 0 0 576.116543 134.141577a32.333896 32.333896 0 0 1-42.504376 0A282.495372 282.495372 0 0 0 347.824539 64.667792z m637.139424 506.275328z"  /></svg>