<?xml version="1.0" standalone="no"?><!DOCTYPE svg PUBLIC "-//W3C//DTD SVG 1.1//EN" "http://www.w3.org/Graphics/SVG/1.1/DTD/svg11.dtd"><svg class="icon" width="200px" height="190.33px" viewBox="0 0 1076 1024" version="1.1" xmlns="http://www.w3.org/2000/svg"><path fill="#8a8a8a" d="M1007.916504 0.021082H66.926727a66.926727 66.926727 0 0 0-66.926727 66.926727v643.500477a66.926727 66.926727 0 0 0 66.926727 66.926726h208.14212l4.350237 3.011703 394.533054 234.243543a52.202847 52.202847 0 0 0 25.766789 7.696574c19.074117 0 33.463363-15.058514 33.463364-41.159937l60.234054-205.465051h216.173327a66.926727 66.926727 0 0 0 66.926727-66.926727V66.947809a66.926727 66.926727 0 0 0-68.599895-66.926727z m0 710.427204h-234.243544a33.463363 33.463363 0 0 0-31.455561 22.420453l-15.727781 44.506273L664.917029 936.995255l-256.99863-159.620243-52.53748-30.45166-63.915024-36.475066H66.926727V66.947809h940.989777z"  /><path fill="#8a8a8a" d="M264.025937 389.199998m-66.926727 0a66.926727 66.926727 0 1 0 133.853453 0 66.926727 66.926727 0 1 0-133.853453 0Z"  /><path fill="#8a8a8a" d="M535.413813 389.199998m-66.926726 0a66.926727 66.926727 0 1 0 133.853453 0 66.926727 66.926727 0 1 0-133.853453 0Z"  /><path fill="#8a8a8a" d="M806.467056 389.199998m-66.926726 0a66.926727 66.926727 0 1 0 133.853453 0 66.926727 66.926727 0 1 0-133.853453 0Z"  /></svg>