<?xml version="1.0" standalone="no"?><!DOCTYPE svg PUBLIC "-//W3C//DTD SVG 1.1//EN" "http://www.w3.org/Graphics/SVG/1.1/DTD/svg11.dtd"><svg class="icon" width="200px" height="200.00px" viewBox="0 0 1024 1024" version="1.1" xmlns="http://www.w3.org/2000/svg"><path fill="#8a8a8a" d="M779.821998 367.986566l-5.15869 0c-2.579345 0-2.579345 0-5.15869 0L769.504618 272.550798C770.3644 116.930311 657.732997 0 508.990764 0c-146.162888 0-257.934509 116.930311-257.934509 272.550798l0 95.435768-7.738035 0c-78.240134 0-141.004198 66.203191-141.004198 143.583543l0 367.986566c0 80.819479 63.623846 143.583543 141.004198 143.583543l536.503778 0c78.240134 0 141.004198-66.203191 141.004198-143.583543L920.826196 511.570109C919.106633 431.610411 855.482788 367.986566 779.821998 367.986566zM294.905122 270.831234c0-134.125945 90.277078-228.701931 214.085642-228.701931 126.387909 0 216.664987 97.155332 216.664987 228.701931l0 95.435768L292.325777 366.267003 292.325777 270.831234 294.905122 270.831234zM877.837112 879.556675c0 55.88581-43.848866 102.314022-97.155332 102.314022L243.31822 981.870697c-53.306465 0-97.155332-46.428212-97.155332-102.314022L146.162888 511.570109c0-55.88581 43.848866-102.314022 97.155332-102.314022L257.934509 409.256087l36.970613 0 434.189757 0 51.586902 0 0 0c53.306465 0 97.155332 46.428212 97.155332 102.314022L877.837112 879.556675 877.837112 879.556675zM507.271201 567.455919c-34.391268 0-61.0445 29.232578-61.0445 63.623846 0 24.073887 12.036944 43.848866 31.811923 55.88581l0 104.893367c0 17.195634 14.616289 31.811923 31.811923 31.811923s31.811923-14.616289 31.811923-31.811923L541.662469 686.965575c19.774979-12.036944 31.811923-31.811923 31.811923-55.88581C567.455919 597.548279 540.802687 567.455919 507.271201 567.455919z" /></svg>